<svg width="16" height="16" viewBox="0 0 16 16" fill="none" xmlns="http://www.w3.org/2000/svg">
<g clip-path="url(#clip0_240_4077)">
<path d="M15.4592 3.15142L10.6113 7.99983L15.4592 12.848C16.1803 13.5694 16.1803 14.7379 15.4592 15.4593C15.0989 15.8196 14.6265 15.9999 14.1544 15.9999C13.6814 15.9999 13.209 15.8199 12.849 15.4593L8.00003 10.6106L3.15143 15.4592C2.79118 15.8195 2.31876 15.9998 1.8462 15.9998C1.37378 15.9998 0.901677 15.8198 0.541103 15.4592C-0.18 14.7382 -0.18 13.5696 0.541103 12.848L5.38888 7.99978L0.540827 3.15142C-0.180276 2.43032 -0.180276 1.26151 0.540827 0.540412C1.26179 -0.180138 2.42992 -0.180138 3.15116 0.540412L7.99999 5.38882L12.8484 0.540412C13.5698 -0.180138 14.7381 -0.180138 15.4589 0.540412C16.1803 1.26151 16.1803 2.43032 15.4592 3.15142Z" fill="#100F0F"/>
</g>
<defs>
<clipPath id="clip0_240_4077">
<rect width="16" height="16" fill="white"/>
</clipPath>
</defs>
</svg>
