<svg width="10" height="17" viewBox="0 0 10 17" fill="none" xmlns="http://www.w3.org/2000/svg">
<path fill-rule="evenodd" clip-rule="evenodd" d="M9.61822 7.58158C9.86268 7.82102 10 8.14573 10 8.48431C10 8.82289 9.86268 9.1476 9.61822 9.38704L2.24185 16.6102C2.12156 16.7321 1.97768 16.8294 1.81859 16.8963C1.65951 16.9633 1.48841 16.9985 1.31527 17C1.14213 17.0014 0.970431 16.9691 0.810183 16.9049C0.649933 16.8407 0.504345 16.7459 0.381914 16.626C0.259484 16.5061 0.162663 16.3636 0.0970993 16.2066C0.0315361 16.0497 -0.00145531 15.8816 4.95911e-05 15.7121C0.00155354 15.5425 0.0375242 15.375 0.105863 15.2192C0.174201 15.0634 0.273538 14.9225 0.398077 14.8047L6.85257 8.48431L0.398077 2.16389C0.160554 1.92308 0.0291243 1.60054 0.032095 1.26576C0.0350657 0.930971 0.172199 0.61072 0.41396 0.373981C0.655721 0.137243 0.982765 0.00295639 1.32465 4.76837e-05C1.66654 -0.00286102 1.99592 0.125837 2.24185 0.358427L9.61822 7.58158Z" fill="#100F0F"/>
</svg>
