<svg width="10" height="17" viewBox="0 0 10 17" fill="none" xmlns="http://www.w3.org/2000/svg">
<path fill-rule="evenodd" clip-rule="evenodd" d="M0.381776 9.41842C0.137325 9.17898 0 8.85427 0 8.51569C0 8.17711 0.137325 7.8524 0.381776 7.61296L7.75815 0.389808C7.87844 0.267856 8.02232 0.170582 8.18141 0.103664C8.34049 0.0367451 8.51159 0.00152146 8.68473 4.82093e-05C8.85787 -0.00142504 9.02957 0.0308818 9.18982 0.095083C9.35007 0.159284 9.49566 0.254094 9.61809 0.373981C9.74052 0.493868 9.83734 0.636431 9.9029 0.793351C9.96846 0.950272 10.0015 1.11841 9.99995 1.28795C9.99845 1.45749 9.96248 1.62503 9.89414 1.78082C9.8258 1.9366 9.72646 2.07749 9.60192 2.19528L3.14743 8.51569L9.60192 14.8361C9.83945 15.0769 9.97088 15.3995 9.96791 15.7342C9.96493 16.069 9.8278 16.3893 9.58604 16.626C9.34428 16.8628 9.01723 16.997 8.67535 17C8.33346 17.0029 8.00408 16.8742 7.75815 16.6416L0.381776 9.41842Z" fill="#100F0F"/>
</svg>
