<svg width="23" height="23" viewBox="0 0 23 23" fill="none" xmlns="http://www.w3.org/2000/svg">
<path d="M21.5494 11.1534H17.7374C17.6455 11.1534 17.5574 11.19 17.4924 11.255C17.4274 11.3199 17.3909 11.4081 17.3909 11.5C17.3909 13.0624 16.7702 14.5609 15.6654 15.6657C14.5606 16.7705 13.0622 17.3912 11.4997 17.3912C9.93728 17.3912 8.43883 16.7705 7.33401 15.6657C6.22923 14.5609 5.60856 13.0624 5.60852 11.5C5.60852 11.4081 5.57205 11.3199 5.50703 11.255C5.44205 11.19 5.35392 11.1534 5.262 11.1534H1.45006C1.35815 11.1534 1.27 11.19 1.20502 11.255C1.14002 11.3199 1.10352 11.4081 1.10352 11.5C1.10354 13.5562 1.71329 15.5661 2.85564 17.2758C3.99799 18.9854 5.62166 20.3179 7.5213 21.1047C9.42093 21.8916 11.5112 22.0975 13.5279 21.6963C15.5445 21.2952 17.397 20.3051 18.8509 18.8512C19.8194 17.8881 20.5871 16.7425 21.1098 15.4806C21.6325 14.2188 21.8997 12.8658 21.8959 11.5C21.8959 11.4081 21.8594 11.3199 21.7944 11.255C21.7294 11.19 21.6413 11.1534 21.5494 11.1534ZM1.80283 11.8466H4.9241C4.99922 13.3527 5.5932 14.7865 6.6052 15.9045L4.39806 18.1116C2.80166 16.4072 1.8793 14.1806 1.80283 11.8466ZM11.1532 21.1969C8.81919 21.1205 6.59255 20.1983 4.88808 18.602L7.09555 16.3945C8.21331 17.4067 9.64707 18.0006 11.1532 18.0753V21.1969ZM11.8463 21.1969V18.0753C13.3524 18.0006 14.7861 17.4067 15.9039 16.3945L18.1114 18.602C16.4069 20.1983 14.1802 21.1205 11.8463 21.1969ZM18.6014 18.1127L16.3942 15.9045C17.4062 14.7865 18.0002 13.3527 18.0753 11.8466H21.1966C21.1201 14.1806 20.1978 16.4072 18.6014 18.1116V18.1127Z" fill="#907846"/>
<path d="M9.07342 11.6951V14.9654C9.07342 15.0573 9.10989 15.1454 9.17491 15.2104C9.23989 15.2754 9.32802 15.3119 9.41994 15.3119H10.4596V16.3515C10.4596 16.4434 10.4961 16.5316 10.5611 16.5966C10.626 16.6616 10.7142 16.698 10.8061 16.698H12.1923C12.2842 16.698 12.3723 16.6616 12.4373 16.5966C12.5023 16.5316 12.5388 16.4434 12.5388 16.3515V15.3119H13.5784C13.6703 15.3119 13.7585 15.2754 13.8235 15.2104C13.8885 15.1454 13.9249 15.0573 13.9249 14.9654V11.6951C14.5581 11.3164 15.0824 10.7802 15.4468 10.1387C15.8112 9.49724 16.0032 8.77233 16.0042 8.03456C16.0042 6.83975 15.5296 5.6939 14.6847 4.84902C13.8398 4.00417 12.694 3.52954 11.4992 3.52954C10.3044 3.52954 9.15852 4.00417 8.31364 4.84902C7.4688 5.6939 6.99418 6.83975 6.99414 8.03456C6.99513 8.77233 7.18718 9.49724 7.55156 10.1387C7.91595 10.7802 8.44022 11.3164 9.07342 11.6951ZM11.8457 16.005H11.1526V15.3119H11.8457V16.005ZM13.2319 14.6188H9.76646V13.9257H13.2319V14.6188ZM13.2319 13.2327H9.76646V12.5396H13.2319V13.2327ZM11.1526 11.8465V9.76724H11.8457V11.8465H11.1526ZM11.4992 4.2226C12.5098 4.22383 13.4787 4.6258 14.1933 5.34044C14.9079 6.05504 15.3099 7.02396 15.3111 8.03456C15.3118 8.68579 15.1347 9.32482 14.7988 9.8827C14.4629 10.4406 13.981 10.8962 13.4051 11.2002C13.3525 11.2306 13.3088 11.2743 13.2784 11.3269C13.248 11.3795 13.2319 11.4392 13.2319 11.5V11.8465H12.5388V9.76724H13.2319V9.0742H9.76646V9.76724H10.4596V11.8465H9.76646V11.5C9.76642 11.4392 9.75036 11.3795 9.71997 11.3269C9.68953 11.2743 9.64583 11.2306 9.59322 11.2002C9.01736 10.8962 8.53547 10.4406 8.19955 9.8827C7.86366 9.32482 7.68652 8.68579 7.68726 8.03456C7.68845 7.02396 8.09042 6.05504 8.80506 5.34044C9.51966 4.6258 10.4886 4.22383 11.4992 4.2226Z" fill="#907846"/>
<path d="M11.4997 5.60881V4.91577C10.421 4.91577 8.38086 5.56758 8.38086 8.03461H9.07398C9.07398 5.64939 11.4017 5.60881 11.4997 5.60881Z" fill="#907846"/>
<path d="M8.38086 8.72766H9.07398V9.42074H8.38086V8.72766Z" fill="#907846"/>
<path d="M11.1543 1.10376H11.8474V2.48992H11.1543V1.10376Z" fill="#907846"/>
<path d="M5.71094 3.77511L6.201 3.28503L7.24073 4.32475L6.75062 4.81482L5.71094 3.77511Z" fill="#907846"/>
<path d="M15.7578 4.32534L16.7975 3.28564L17.2876 3.77573L16.2479 4.81544L15.7578 4.32534Z" fill="#907846"/>
<path d="M8.06836 1.95324L8.68796 1.64343L9.38071 3.02889L8.76111 3.3387L8.06836 1.95324Z" fill="#907846"/>
<path d="M13.2656 3.03304L13.9584 1.64758L14.578 1.95739L13.8852 3.34285L13.2656 3.03304Z" fill="#907846"/>
<path d="M5.60852 8.03462C5.60852 7.82902 5.54757 7.62802 5.43335 7.45704C5.31909 7.2861 5.15673 7.15282 4.96678 7.07413C4.77678 6.99543 4.56777 6.97486 4.36611 7.01498C4.16445 7.05511 3.97919 7.15409 3.8338 7.29948C3.6884 7.44488 3.58939 7.63015 3.54927 7.83181C3.50916 8.03347 3.52975 8.24249 3.60843 8.43248C3.68712 8.62244 3.82037 8.78479 3.99133 8.89905C4.16231 9.01327 4.36331 9.07422 4.56892 9.07422C4.84463 9.07422 5.10909 8.96473 5.30405 8.76976C5.49902 8.57479 5.60852 8.31033 5.60852 8.03462ZM4.2224 8.03462C4.2224 7.96607 4.24269 7.89909 4.28076 7.84208C4.31887 7.78511 4.37296 7.74067 4.4363 7.71447C4.49963 7.68823 4.56929 7.68137 4.63652 7.69476C4.70375 7.7081 4.76548 7.74113 4.81395 7.78959C4.86241 7.83805 4.89543 7.89978 4.90878 7.96702C4.92217 8.03425 4.91531 8.10391 4.88907 8.16724C4.86286 8.23057 4.81843 8.28466 4.76146 8.32278C4.70445 8.36085 4.63746 8.38114 4.56892 8.38114C4.477 8.38114 4.38886 8.34467 4.32388 8.27965C4.25887 8.21468 4.2224 8.12654 4.2224 8.03462Z" fill="#907846"/>
<path d="M18.7768 8.03465C19.0509 8.03465 19.3189 7.95337 19.5469 7.80103C19.7748 7.64874 19.9525 7.43225 20.0574 7.17896C20.1623 6.92568 20.1898 6.64697 20.1363 6.37807C20.0828 6.10918 19.9508 5.86217 19.7569 5.66832C19.5631 5.47446 19.3161 5.34246 19.0472 5.28898C18.7783 5.23546 18.4996 5.26294 18.2463 5.36784C17.993 5.47277 17.7765 5.65041 17.6242 5.8784C17.4719 6.10634 17.3906 6.37433 17.3906 6.64849C17.3906 7.01612 17.5366 7.36871 17.7966 7.62865C18.0566 7.8886 18.4091 8.03465 18.7768 8.03465ZM18.7768 5.9554C18.9138 5.9554 19.0479 5.99607 19.1618 6.07221C19.2758 6.14836 19.3646 6.25662 19.4171 6.38325C19.4695 6.50991 19.4833 6.64927 19.4565 6.78369C19.4298 6.91816 19.3638 7.04162 19.2668 7.13855C19.1699 7.23548 19.0464 7.30152 18.912 7.32826C18.7775 7.355 18.6382 7.34128 18.5115 7.28879C18.3849 7.23634 18.2767 7.1475 18.2005 7.03353C18.1243 6.91956 18.0837 6.78558 18.0837 6.64849C18.0837 6.46465 18.1567 6.28837 18.2867 6.15842C18.4167 6.02843 18.5929 5.9554 18.7768 5.9554Z" fill="#907846"/>
</svg>
