<svg width="100" height="28" viewBox="0 0 100 28" fill="none" xmlns="http://www.w3.org/2000/svg">
<path d="M99 0.5C99.5523 0.5 100.003 0.948209 99.967 1.49929C99.7508 4.76968 98.4747 7.99541 96.194 11.0238C93.6812 14.3602 89.9983 17.3918 85.3553 19.9454C80.7124 22.499 75.2004 24.5247 69.1342 25.9067C63.0679 27.2887 56.5661 28 50 28C43.4339 28 36.9321 27.2887 30.8658 25.9067C24.7995 24.5247 19.2876 22.499 14.6447 19.9454C10.0017 17.3918 6.31876 14.3602 3.80602 11.0238C1.5253 7.99541 0.249226 4.76968 0.0330201 1.49929C-0.00341198 0.948207 0.447715 0.499998 1 0.499998L50 0.5L99 0.5Z" fill="#100F0F"/>
</svg>
